<?xml version="1.0" encoding="utf-8"?>
<!-- Generator: Adobe Illustrator 16.0.0, SVG Export Plug-In . SVG Version: 6.00 Build 0)  -->
<!DOCTYPE svg PUBLIC "-//W3C//DTD SVG 1.1//EN" "http://www.w3.org/Graphics/SVG/1.1/DTD/svg11.dtd">
<svg version="1.1" id="Layer_1" xmlns="http://www.w3.org/2000/svg" xmlns:xlink="http://www.w3.org/1999/xlink" x="0px" y="0px"
	 width="864px" height="864px" viewBox="0 0 864 864" enable-background="new 0 0 864 864" xml:space="preserve">
<path fill="#030303" d="M554.64,640.423c-0.305-1.998-1.174-4.77-2.366-6.133c-0.683-0.779-5.6-2.457-5.739-2.609
	c-0.141-0.152,0.182-23.835,0.182-23.835c-1.658-1.605-24.365-11.558-24.453-11.829c0,0-11.533-39.521-12.383-40.534
	c-0.892-0.423-146.074-0.37-146.147-0.254c0,0.001-0.988,93.893-0.988,93.893c-0.001,0.427-4.942,0.593-4.942,0.593l0.198,7.709
	c0,0,17.79-0.791,18.029,0.73c0.008,0.053,0.104,0.008,0.153,0.018c2.129,8.688,9.964,15.135,19.309,15.135
	c9.463,0,18.416-8.607,20.426-17.463c1.544-0.025,34.568-0.395,34.79-0.396c0,0,35.697,0,35.778,0
	c0.395,9.488,8.302,18.385,20.131,18.102c9.961-0.24,18.215-7.33,19.66-16.891c0,0,21.785,0.193,21.881,0.172
	c0.915-0.186,5.246-4.549,5.973-7.241C554.527,648.112,554.91,642.202,554.64,640.423z"/>
<polygon fill="#D0E2DC" points="555.963,472.693 522.121,472.962 519.594,438.218 544.411,438.038 "/>
<path fill="#F1F2F2" d="M508.304,477.564l-10.92-0.09l-9.62-32.97l9.91,0.249l-1.131-3.771v-4.393h-151.68v4.877h0.672
	l-0.761,89.473l-4.421,0.262l0.09,8.904l7.309,0.16l9.833-0.004c-0.319-1.412,0-4.225,0-5.732c0-10.966,11.176-19.571,22.139-19.768
	c22.139-0.395,21.026,23.402,20.754,24.709l68.592-0.988c-0.235-1.225,1.581-23.721,21.743-23.918
	c10.966-0.107,20.953,9.395,20.953,20.359c0,1.174,0.194,3.43,0,4.547l19.82-0.086l0.181-49.096
	C531.768,490.289,522.74,480.33,508.304,477.564z M475.04,477.435l-0.5-32.929h9.479l9.73,32.929H475.04z"/>
<path fill="#D8D9D8" d="M476.08,361.927l-0.03,10.022c0,0,4.814-0.048,6.019-0.294c1.201-0.247,5.759-4.127,6.559-7.091
	c0.417-1.543,0.816-7.584,0.528-9.485c-0.29-1.9-1.147-4.924-2.552-6.529c-0.826-0.944-4.86-2.142-5.544-2.155l0.06,15.583
	L476.08,361.927z"/>
<circle fill="#D7D6D6" cx="393.975" cy="692.779" r="10.104"/>
<path fill="#D7D6D6" d="M515.035,692.668c0,5.578-4.523,10.104-10.104,10.104c-5.581,0-10.104-4.523-10.104-10.104
	c0-5.578,4.522-10.104,10.104-10.104C510.512,682.564,515.035,687.088,515.035,692.668z"/>
<rect x="374.929" y="280.43" fill="#767677" width="39.354" height="43.773"/>
<path fill="#DBB895" d="M484.443,229.695c-0.368-0.674-1.563-0.45-2.783-0.474c-0.672-0.014-1.629-0.016-2.846-0.009
	c-2.252,0.014-5.271,0.063-8.502,0.139c-3.229,0.076-6.245,0.169-8.494,0.26c-1.216,0.05-2.172,0.097-2.842,0.142
	c-1.216,0.082-2.477-0.147-2.812,0.543c-0.184,0.375,9.524,21.292,9.524,21.292l-0.005,0.007c0.016,0.031,3.707,7.814,3.725,7.848
	c0.395,0.72,1.176,0.621,1.93,0.583C472.499,259.966,484.645,230.062,484.443,229.695z"/>
<path fill="#E9717D" d="M481.525,212.478c0.533-1.442,0.809-2.992,0.771-4.601c-0.174-7.38-6.82-13.21-14.847-13.022
	c-8.025,0.188-14.393,6.323-14.219,13.704c0.018,0.75,0.104,1.484,0.252,2.199c-2.455,0.327-4.322,2.424-4.264,4.915
	c0.063,2.676,2.32,4.793,5.041,4.729c0.98-0.023,3.683-0.52,4.309,0.425c0.822,1.24,1.357,2.792,3.061,3.004
	c1.473,0.184,2.953-0.944,3.861-2.001c0.916,0.958,2.236,1.623,3.738,1.816c2.2,0.282,1.054,5.334,3.75,5.413
	c1.688,0.047,2.293-1.706,2.472-3.087c0.19-1.459-1.528-4.879,0.6-5.656c0.536-0.196,1.038,0.189,1.497,0.415
	c2.965,1.453,6.697-1.045,6.621-4.29C484.127,214.708,483.063,213.225,481.525,212.478z"/>
<path fill="#69BDAF" d="M469.754,377.462v8.417h-47.77v0.102l-74.063,0.258l-0.361,20.216l-4.874,0.054v10.476l20.893-0.154
	c-0.388-1.553-0.643-3.171-0.643-4.843c0-11.021,8.786-19.981,19.808-19.981s20.221,9.06,20.221,20.08
	c0,1.561-0.185,3.075-0.523,4.533l31.809-0.497l-0.002-0.642h35.506v0.15l4.223,0.013c-0.213-1.168-0.197-2.326-0.197-3.558
	c0-11.021,9.121-19.925,20.143-19.925c11.022,0,19.957,8.936,19.957,19.956c0,1.23-0.173,2.374-0.386,3.543l11.131,0.059v-38.166
	L469.754,377.462z"/>
<path fill="#D7D6D6" d="M424.343,282.657v94.045l35.554-0.385l0.042-93.825L424.343,282.657z M456.548,322.285h-28.687v-33.179
	h28.687V322.285z"/>
<rect x="345.429" y="269.824" fill="#69BDAF" width="152.818" height="6.016"/>
<path fill="#A5DAD1" d="M425.09,223.408c-1.151-0.111-2.748,0.11-3.832,1.304c-2.17,2.391,0.399,4.387,3.048,2.854
	c1.509-0.872,2.384-2.059,2.165-3.637l-1.767-12.795l0,0l11.147-3.118l1.57,11.37c-1.152-0.11-2.748,0.11-3.833,1.305
	c-2.169,2.391,0.399,4.387,3.05,2.854c1.506-0.872,2.382-2.059,2.164-3.637l-1.952-14.134l-13.717,3.473L425.09,223.408z"/>
<path fill="#7C5B3F" d="M414.383,201.923c-0.259-0.456-0.595-1.003-1.026-1.657c-0.433-0.654-0.751-1.179-0.956-1.585
	c-0.194-0.405-0.359-0.877-0.475-1.414c-0.123-0.548-0.18-1.208-0.189-1.985l-1.06-0.152l-0.755,5.232l-1.473,10.205
	c-0.292-0.358-0.826-0.588-1.6-0.7c-0.555-0.08-1.151-0.013-1.788,0.191c-0.636,0.204-1.19,0.532-1.649,0.975
	c-0.46,0.454-0.737,0.974-0.822,1.563c-0.08,0.559,0.056,1.017,0.391,1.36c0.345,0.346,0.809,0.565,1.385,0.648
	c0.604,0.087,1.325,0.059,1.97-0.124c0.653-0.181,1.41-0.469,1.869-0.913c0.468-0.442,1.032-0.952,1.125-1.591l1.63-11.303
	c0.562,0.112,1.082,0.36,1.564,0.735c0.48,0.386,0.891,0.842,1.236,1.391c0.336,0.548,0.587,1.125,0.731,1.736
	c0.146,0.603,0.173,1.187,0.091,1.756c-0.051,0.36-0.144,0.713-0.266,1.074c-0.133,0.357-0.297,0.711-0.479,1.062
	c-0.191,0.35-0.419,0.735-0.674,1.167c-0.264,0.421-0.499,0.794-0.699,1.123l0.318,0.045c1.455-1.808,2.271-3.403,2.471-4.781
	C415.447,204.646,415.157,203.289,414.383,201.923z"/>
<path fill="#E9717D" d="M366.142,216.986c-0.466-0.253-1-0.328-1.582-0.219c-0.573,0.107-1.137,0.366-1.681,0.787
	c-0.547,0.411-0.983,0.914-1.293,1.496c-0.31,0.582-0.425,1.169-0.337,1.749c0.138,0.52,0.421,0.889,0.852,1.117
	c0.429,0.218,0.92,0.281,1.474,0.178c0.582-0.109,1.245-0.377,1.807-0.759c0.551-0.38,1.176-0.898,1.478-1.469
	c0.304-0.561,0.687-1.208,0.572-1.824l-3.101-16.615l-1.054,0.197L366.142,216.986L366.142,216.986z"/>
<path fill="#FBAC44" d="M381.275,223.849c-1.126-0.267-2.738-0.267-3.975,0.768c-2.477,2.072-0.205,4.4,2.629,3.246
	c1.613-0.658,2.643-1.714,2.643-3.307v-12.916h0l11.469-1.563v11.479c-1.127-0.268-2.738-0.267-3.976,0.768
	c-2.476,2.072-0.204,4.401,2.63,3.245c1.611-0.657,2.642-1.713,2.642-3.307v-14.268l-14.062,1.563V223.849z"/>
</svg>
