<?xml version="1.0" encoding="utf-8"?>
<!-- Generator: Adobe Illustrator 17.1.0, SVG Export Plug-In . SVG Version: 6.00 Build 0)  -->
<!DOCTYPE svg PUBLIC "-//W3C//DTD SVG 1.1//EN" "http://www.w3.org/Graphics/SVG/1.1/DTD/svg11.dtd">
<svg version="1.1" id="Layer_1" xmlns="http://www.w3.org/2000/svg" xmlns:xlink="http://www.w3.org/1999/xlink" x="0px" y="0px"
	 viewBox="0 0 960 560" enable-background="new 0 0 960 560" xml:space="preserve">
<path fill="#B29B72" d="M595,293.7c0.5-2.9-0.3-5.8-2-8.2c-1.8-2.4-4.3-4-7.3-4.4c-0.1,0-0.3-0.1-0.5-0.1h-0.1v-0.1
	c0.3-2.3,0.1-4.5-0.5-6.7c0.4,0,0.7-0.1,1.1-0.1c2.9-0.5,5.4-2.1,7.1-4.6c1.7-2.5,2.3-5.4,1.8-8.3c-1-5.3-5.5-9.1-10.9-9.1
	c-0.6,0-1.4,0.1-2,0.2c-0.1,0-0.3,0.1-0.5,0.1h-0.1v-0.1c-0.6-3-2-5.7-4-7.9c1.5-1.6,2.5-3.6,2.7-5.9c0.5-4.9-2.7-9.3-7.4-10.6
	c0,0.1-0.1,0.1-0.1,0.2c-0.1,0-0.1,0-0.1-0.1l-0.1-0.1l0.1-0.1c1.6-4.9,6.6-8.2,12.1-8.2c1.3,0,2.6,0.2,3.8,0.6l1-2.6
	c-1.2-0.3-2.3-0.5-3.6-0.5c-3.2,0-6.4,1-9.2,3c-2.8,1.9-4.9,4.7-5.6,7.5v0.1h-0.1c-0.1,0-0.1,0-0.2,0c0-0.1,0.1-0.1,0.1-0.3
	c-0.1,0-0.3,0-0.4,0c-5.1,0-9.3,3.8-9.8,8.9c-0.1,0.8-0.1,1.6,0.1,2.3c-4.1,0.9-7.8,3.3-10.2,6.8c-2.3,3.2-3.4,7.1-3.2,11v0.1h-0.1
	c-3,0.6-5.7,2.5-7.5,5.1c-1.8,2.7-2.4,5.8-1.8,8.9c0.5,2.7,1.8,4.9,3.6,6.7c-1.8,1.8-3,4.1-3.4,6.7c-0.6,4,0.8,7.9,3.6,10.5
	c-2.1,0.8-4,2.2-5.3,4c-1.9,2.5-2.7,5.6-2.3,8.8c0.5,3.4,2.3,6.4,4.9,8.3c-1.4,2-2.3,4.3-2.3,6.8c-0.1,3.2,1.1,6.3,3.4,8.6
	c2.3,2.3,5.2,3.7,8.5,3.8c0.1,0,0.2,0,0.3,0c0.3,0,0.6,0,0.8,0c0.4,1.2,0.9,2.8,1.6,4.8c1.2,3.6,3,8.8,5.2,15.1
	c3.8,10.8,7.6,21.7,7.6,21.8l0.1,0.2l0.1,0.1c0.4,0.4,0.8,0.6,1.4,0.6c0.5,0,1-0.2,1.4-0.6l0.1-0.1l0.1-0.2c0.1-0.1,3.7-11,7.2-21.7
	c2.1-6.4,3.7-11.4,4.9-15c0.6-2,1.1-3.6,1.5-4.7c0.8,0.2,1.7,0.3,2.5,0.3c0.1,0,0.1,0,0.3,0l0,0c6,0,11-4.9,11.1-10.8
	c0.1-6.1-4.7-11.2-10.8-11.3c-0.1,0-0.1,0-0.3,0c-0.1,0-0.1,0-0.2,0h-0.1V313l0,0c2.5-0.6,4.7-1.9,6.2-4c1.8-2.3,2.6-5.2,2.3-8.2
	c0-0.2-0.1-0.4-0.1-0.6C593.2,298.7,594.7,296.4,595,293.7z"/>
<path fill="#9A805A" d="M595,293.7c0.5-2.9-0.3-5.8-2-8.2c-1.8-2.4-4.3-4-7.3-4.4c-0.1,0-0.3-0.1-0.5-0.1h-0.1v-0.1
	c0.3-2.3,0.1-4.5-0.5-6.7c0.4,0,0.7-0.1,1.1-0.1c2.9-0.5,5.4-2.1,7.1-4.6c1.7-2.5,2.3-5.4,1.8-8.3c-1-5.3-5.5-9.1-10.9-9.1
	c-0.6,0-1.4,0.1-2,0.2c-0.1,0-0.3,0.1-0.5,0.1h-0.1v-0.1c-0.6-3-2-5.7-4-7.9c1.5-1.6,2.5-3.6,2.7-5.9c0.5-4.9-2.7-9.3-7.4-10.6
	c0,0.1-0.1,0.1-0.1,0.2c-0.1,0-0.1,0-0.1-0.1l-0.1-0.1l0.1-0.1c1.6-4.9,6.6-8.2,12.1-8.2c1.3,0,2.6,0.2,3.8,0.6l1-2.6
	c-1.2-0.3-2.3-0.5-3.6-0.5c-3.2,0-6.4,1-9.2,3c-2.8,1.9-4.9,4.7-5.6,7.5v0.1h-0.1c-0.1,0-0.1,0-0.2,0c0-0.1,0.1-0.1,0.1-0.3
	c-0.1,0-0.3,0-0.4,0c-5.1,0-9.3,3.8-9.8,8.9c-0.1,0.8-0.1,1.6,0.1,2.3c-4.1,0.9-7.8,3.3-10.2,6.8c-2.3,3.2-3.4,7.1-3.2,11v0.1h-0.1
	c-3,0.6-5.7,2.5-7.5,5.1c-1.8,2.7-2.4,5.8-1.8,8.9c0.5,2.7,1.8,4.9,3.6,6.7c-1.8,1.8-3,4.1-3.4,6.7c-0.6,4,0.8,7.9,3.6,10.5
	c-2.1,0.8-4,2.2-5.3,4c-1.9,2.5-2.7,5.6-2.3,8.8c0.5,3.4,2.3,6.4,4.9,8.3c-1.4,2-2.3,4.3-2.3,6.8c-0.1,3.2,1.1,6.3,3.4,8.6
	c2.3,2.3,5.2,3.7,8.5,3.8c0.1,0,0.2,0,0.3,0c0.3,0,0.6,0,0.8,0c0.4,1.2,0.9,2.8,1.6,4.8c1.2,3.6,3,8.8,5.2,15.1
	c3.8,10.8,7.6,21.7,7.6,21.8l0.1,0.2l0.1,0.1c0.4,0.4,0.8,0.6,1.4,0.6c0.5,0,1-0.2,1.4-0.6l0.1-0.1l0.1-0.2c0.1-0.1,3.7-11,7.2-21.7
	c2.1-6.4,3.7-11.4,4.9-15c0.6-2,1.1-3.6,1.5-4.7c0.8,0.2,1.7,0.3,2.5,0.3c0.1,0,0.1,0,0.3,0l0,0c6,0,11-4.9,11.1-10.8
	c0.1-6.1-4.7-11.2-10.8-11.3c-0.1,0-0.1,0-0.3,0c-0.1,0-0.1,0-0.2,0h-0.1V313l0,0c2.5-0.6,4.7-1.9,6.2-4c1.8-2.3,2.6-5.2,2.3-8.2
	c0-0.2-0.1-0.4-0.1-0.6C593.2,298.7,594.7,296.4,595,293.7z M565,375.7L553,334.1c0.6-0.2,1.1-0.5,1.6-0.8l11,42.2
	C565.4,375.5,565.2,375.7,565,375.7z"/>
<g>
	<path fill="none" d="M559.3,355.6c-1.1-1-2.1-2.1-2.9-3.1c1.1,3.2,2.2,6.4,3.2,9.3c1.6-0.8,3.1-1.6,4.4-2.5
		C562.1,358,560.5,356.7,559.3,355.6z"/>
	<path fill="none" d="M560.7,337.3c-2.2-0.9-4.1-2.5-5.4-4.5l-0.1-0.1l-0.1,0.1c-1.1,0.7-2.3,1.2-3.5,1.6c1,1.6,2.5,3.6,4.3,5.5
		C557.5,339,559.1,338.2,560.7,337.3z"/>
	<path fill="none" d="M560.1,354.8c1.2,1.2,2.9,2.5,5,4c2.1-1.4,3.8-2.8,4.9-4c1-1,2-1.9,2.8-3c-3.1-0.8-6.2-2.1-9.1-4
		c-2.3,1.3-4.7,2.3-7.1,3C557.6,352.2,558.8,353.6,560.1,354.8z"/>
	<path fill="none" d="M557.6,343.2c-0.7-0.6-1.4-1.4-2-2c-1,0.5-1.9,0.8-2.7,1.2c0.6,1.9,1.4,4,2.1,6.2c0.3,0.5,0.6,1,0.9,1.5
		c2.3-0.6,4.5-1.6,6.7-2.8C561,346,559.3,344.7,557.6,343.2z"/>
	<path fill="none" d="M550.4,334.6L550.4,334.6c0.5,1.6,1.2,4,2.1,6.7c0.7-0.3,1.5-0.6,2.2-0.9C553,338.3,551.5,336.3,550.4,334.6z"
		/>
	<path fill="none" d="M577.2,333.5c-0.3-0.3-0.7-0.5-1-0.7l-0.1-0.1l-0.1,0.1c-1.6,2.3-3.8,4-6.4,4.9c1,0.6,2.1,1.1,3.1,1.7
		C574.6,337.2,576.1,335.2,577.2,333.5z"/>
	<path fill="none" d="M558.4,342.4c1.8,1.6,3.6,3,5.4,4.2c2.3-1.4,4.4-3,6.5-4.9c0.5-0.5,1-1,1.6-1.5c-1.3-0.6-2.6-1.4-3.8-2.1
		c-0.8,0.1-1.6,0.3-2.4,0.3c-0.1,0-0.2,0-0.3,0c-1.1,0-2.2-0.2-3.2-0.5c-1.8,1.1-3.6,2.1-5.4,2.9
		C557.3,341.2,557.8,341.8,558.4,342.4z"/>
	<path fill="none" d="M560,363c0.3,0.9,0.6,1.8,1,2.7c1.8,2.6,4.9,4.7,6.5,5.2c0.1-0.1,0.3-0.2,0.3-0.3c0.7-2.1,1.6-4.7,2.5-7.5
		c-1.9-0.9-3.7-1.9-5.2-2.9C563.6,361.1,561.9,362.1,560,363z"/>
	<path fill="none" d="M571.1,342.5c-1.9,1.8-4,3.4-6.2,4.7c2.9,1.7,5.8,2.9,8.8,3.6c0.6-0.8,1-1.5,1.4-2.2c0.7-2.1,1.4-4.2,2-6.2
		c-1.2-0.5-2.7-1.1-4.1-1.8C572.3,341.3,571.7,341.9,571.1,342.5z"/>
	<path fill="none" d="M573.7,339.8c1.2,0.6,2.5,1.1,3.7,1.6c0.9-2.8,1.6-5.2,2.1-6.8c-0.5-0.2-0.9-0.3-1.4-0.6
		C577.1,335.7,575.6,337.8,573.7,339.8z"/>
	<path fill="none" d="M570.8,355.6c-1.2,1.1-2.7,2.4-4.7,3.8c1.4,0.8,2.9,1.7,4.5,2.5c1-3,2.1-6.2,3.1-9.4
		C572.9,353.6,571.9,354.6,570.8,355.6z"/>
	<path fill="none" d="M564.6,376.1c0.3,0.6,1.1,0.7,1.4,0c0,0,0.5-1.3,1.2-3.5c-1.1,0.8-2.2,1.5-3.1,1.8
		C564.4,375.5,564.6,376.1,564.6,376.1z"/>
	<path fill="none" d="M562,368.5c0.6,1.9,1.2,3.5,1.7,4.8c0.8-0.3,1.8-0.9,2.9-1.7C565.2,371.1,563.5,370,562,368.5z"/>
	<path fill="#886F45" d="M595,293.5c0.5-2.9-0.3-5.8-2-8.2c-1.8-2.4-4.3-4-7.3-4.4c-0.1,0-0.3-0.1-0.5-0.1h-0.1v-0.1
		c0.3-2.3,0.1-4.5-0.5-6.7c0.4,0,0.7-0.1,1.1-0.1c2.9-0.5,5.4-2.1,7.1-4.6c1.7-2.5,2.3-5.4,1.8-8.3c-1-5.3-5.5-9.1-10.9-9.1
		c-0.6,0-1.4,0.1-2,0.2c-0.1,0-0.3,0.1-0.5,0.1h-0.1V252c-0.6-3-2-5.7-4-7.9c1.5-1.6,2.5-3.6,2.7-5.9c0.5-4.9-2.7-9.3-7.4-10.6
		c0,0.1-0.1,0.1-0.1,0.2c-0.1,0-0.1,0-0.1-0.1l-0.1-0.1l0.1-0.1c1.6-4.9,6.6-8.2,12.1-8.2c1.3,0,2.6,0.2,3.8,0.6l1-2.6
		c-1.2-0.3-2.3-0.5-3.6-0.5c-3.2,0-6.4,1-9.2,3c-2.9,1.9-4.9,4.7-5.6,7.5v0.1h-0.1c-0.1,0-0.1,0-0.2,0c0-0.1,0.1-0.1,0.1-0.3
		c-0.1,0-0.3,0-0.4,0c-5.1,0-9.3,3.8-9.8,8.9c-0.1,0.8-0.1,1.6,0.1,2.3c-4.1,0.9-7.8,3.3-10.2,6.8c-2.3,3.2-3.4,7.1-3.2,11v0.1h-0.1
		c-3,0.6-5.7,2.5-7.5,5.1c-1.8,2.7-2.4,5.8-1.8,8.9c0.5,2.7,1.8,4.9,3.6,6.7c-1.8,1.8-3,4.1-3.4,6.7c-0.6,4,0.8,7.9,3.6,10.5
		c-2.1,0.8-4,2.2-5.3,4c-1.9,2.5-2.7,5.6-2.3,8.8c0.5,3.4,2.3,6.4,4.9,8.3c-1.4,2-2.3,4.3-2.3,6.8c-0.1,3.2,1.1,6.3,3.4,8.6
		c2.3,2.3,5.2,3.7,8.5,3.8c0.1,0,0.2,0,0.3,0c0.1,0,0.3,0,0.5,0c0.4,1.2,0.9,2.8,1.6,4.9c1,3,2.3,7,4,11.9v0.1l0,0
		c0.3,1,0.7,2.1,1.1,3.2c3.8,10.8,7.4,21.5,7.6,21.8c0,0,0.5,1.2,2,1.2c1.5,0,2-1.2,2-1.2c0.2-0.2,3.7-11,7.2-21.7
		c2.1-6.4,3.7-11.4,4.9-15c0.6-2,1.1-3.6,1.5-4.7c0.7,0.1,1.4,0.3,2.1,0.3c0.1,0,0.1,0,0.3,0l0,0c6,0,11-4.9,11.1-10.8
		c0.1-6.1-4.7-11.2-10.8-11.3c-0.1,0-0.1,0-0.3,0c-0.1,0-0.1,0-0.2,0H583v-0.1l0,0c2.5-0.6,4.7-1.9,6.2-4c1.8-2.3,2.6-5.2,2.3-8.2
		c0-0.2-0.1-0.4-0.1-0.6C593.2,298.5,594.7,296.1,595,293.5z M576,332.8l0.1-0.1l0.1,0.1c0.3,0.3,0.6,0.5,1,0.7
		c-1.1,1.8-2.7,3.8-4.5,5.8c-1-0.5-2.1-1.1-3.1-1.7C572.2,336.8,574.4,335.1,576,332.8z M565.3,338.3c0.1,0,0.2,0,0.3,0
		c0.8,0,1.6-0.1,2.4-0.3c1.2,0.8,2.6,1.5,3.8,2.1c-0.5,0.5-1,1-1.6,1.5c-2.1,1.9-4.2,3.6-6.5,4.9c-1.9-1.2-3.7-2.6-5.4-4.2
		c-0.6-0.6-1.2-1.1-1.7-1.7c1.8-0.8,3.6-1.8,5.4-2.9C563.2,338.1,564.2,338.3,565.3,338.3z M572.8,351.9c-0.8,1-1.8,2-2.8,3
		c-1.2,1.1-2.9,2.5-4.9,4c-2.1-1.4-3.8-2.9-5-4c-1.4-1.2-2.5-2.5-3.5-3.8c2.4-0.7,4.8-1.8,7.1-3C566.7,349.7,569.8,351,572.8,351.9z
		 M555.1,332.8l0.1-0.1l0.1,0.1c1.4,2,3.2,3.6,5.4,4.5c-1.6,0.9-3.2,1.8-4.8,2.5c-1.8-1.9-3.2-3.8-4.3-5.5
		C552.9,334,554,333.5,555.1,332.8z M550.3,334.6C550.4,334.6,550.4,334.6,550.3,334.6c1.1,1.7,2.6,3.7,4.4,5.7
		c-0.8,0.3-1.5,0.6-2.2,0.9C551.6,338.5,550.8,336.2,550.3,334.6z M555,348.5c-0.7-2.1-1.4-4.2-2.1-6.2c0.8-0.3,1.8-0.7,2.7-1.2
		c0.6,0.6,1.3,1.4,2,2c1.6,1.5,3.3,2.9,5.1,4c-2.2,1.2-4.5,2.1-6.7,2.8C555.6,349.5,555.2,349,555,348.5z M556.4,352.5
		c0.8,1,1.8,2.1,2.9,3.1c1.2,1.1,2.8,2.5,4.7,3.8c-1.3,0.8-2.8,1.7-4.4,2.5C558.6,358.9,557.5,355.7,556.4,352.5z M563.7,373.3
		c-0.5-1.2-1-2.9-1.7-4.8c1.5,1.4,3.2,2.5,4.5,3.1C565.4,372.4,564.5,373,563.7,373.3z M566,376.1c-0.3,0.7-1.2,0.6-1.4,0
		c0,0-0.2-0.6-0.6-1.6c0.9-0.3,2-1,3.1-1.8C566.5,374.8,566,376.1,566,376.1z M567.8,370.5c-0.1,0.1-0.3,0.2-0.3,0.3
		c-1.6-0.5-4.7-2.6-6.5-5.2c-0.3-0.8-0.6-1.8-1-2.7c1.9-0.9,3.6-1.9,5.1-2.9c1.6,1,3.3,2,5.2,2.9
		C569.4,365.8,568.5,368.4,567.8,370.5z M570.7,361.9c-1.7-0.8-3.2-1.6-4.5-2.5c1.9-1.4,3.5-2.7,4.7-3.8c1.1-1,2.1-2.1,3-3.2
		C572.7,355.7,571.7,358.9,570.7,361.9z M575.1,348.7c-0.4,0.7-0.8,1.4-1.4,2.2c-3-0.7-5.9-1.9-8.8-3.6c2.1-1.3,4.2-2.9,6.2-4.7
		c0.6-0.6,1.2-1.2,1.9-1.8c1.5,0.7,2.9,1.4,4.1,1.8C576.4,344.4,575.7,346.5,575.1,348.7z M577.4,341.4c-1.2-0.5-2.5-1-3.7-1.6
		c1.9-2.1,3.4-4.1,4.5-5.8c0.5,0.2,0.9,0.4,1.4,0.6C579,336.3,578.3,338.6,577.4,341.4z"/>
</g>
<g>
	<path fill="#DA4E5C" d="M416.6,402.8c-4.1-0.1-7.9-2.1-10.2-5.5c-2.1,1.3-4.5,2-6.9,1.9c-6.7-0.1-12.1-5.8-12-12.5
		c0.1-6.6,5.5-11.9,12.1-12c0.6-3.9,2.5-7.5,5.4-10.2c3.4-3.1,7.7-4.7,12.2-4.6c9.5,0.2,17,8,17.1,17.4c0.1,0,0.3,0,0.5,0
		c6.2,0.1,11.1,5.2,11,11.5c-0.1,6.2-5.2,11.1-11.5,11c-2.5-0.1-5-1-6.9-2.5C425,400.7,421,402.9,416.6,402.8z"/>
	<path fill="#FFFFFF" stroke="#CFCECE" stroke-width="0.5" stroke-miterlimit="10" d="M417.1,399.2c-0.1,0-0.2,0-0.3,0
		c-4.3-0.1-8-2.5-9.9-6.4l-0.1-0.3l-0.3,0.3c-2,1.8-4.5,2.8-7.3,2.8c-0.1,0-0.1,0-0.3,0c-4.1-0.1-8-2.6-9.7-6.4c0-0.2,0-0.4,0-0.6
		c0.1-2.7,1.2-5.3,3.1-7.2c1.9-1.9,4.5-3,7.3-3c0.1,0,0.1,0,0.3,0l0,0h0.1c2.1,0.5,3.8,1.8,4.5,3.5l0.5-0.1c0-0.6-0.1-1.2-0.3-1.7
		c-0.5-1.6-1.7-2.8-3.3-3.6c0.6-3.6,2.5-6.8,5.2-9.2c2.9-2.5,6.4-3.8,10.2-3.8c0.1,0,0.3,0,0.3,0c4.1,0.1,8,1.8,10.8,4.7
		c2.8,2.9,4.4,6.7,4.5,10.7c-1.9,0.6-3.5,1.9-4.1,3.6c-0.2,0.5-0.3,1.1-0.4,1.7l0.5,0.1c0.7-1.6,2.2-2.7,4.1-3.2h0.1
		c0.6-0.1,1.2-0.2,1.8-0.2c0.1,0,0.1,0,0.2,0c2.5,0.1,4.8,1.1,6.5,2.9s2.7,4.1,2.6,6.7c0,0.3,0,0.6-0.1,1c-1.8,2.9-4.9,4.6-8.2,4.6
		l0,0c-0.1,0-0.1,0-0.2,0c-2.9-0.1-5.6-1.4-7.4-3.6l-0.3-0.4l-0.2,0.5C425.7,396.5,421.6,399.2,417.1,399.2z"/>
	<path fill="#E56171" d="M434.9,380.7c-0.7,0-1.4,0.1-2.1,0.2l0,0c-2,0.5-3.6,1.6-4.4,3.4c0.1-0.5,0.1-1.1,0.3-1.6
		c0.7-1.8,2.3-3,4.1-3.5c0-8.6-6.9-15.7-15.6-15.9c-8-0.2-14.8,5.7-16,13.4c1.6,0.6,2.9,1.9,3.4,3.4c0.2,0.5,0.3,1,0.3,1.6
		c-0.8-1.9-2.5-3.2-4.7-3.7l0,0h-0.1c-5.9-0.1-10.8,4.5-10.9,10.4c0,0.2,0,0.5,0,0.6c1.7,3.8,5.5,6.5,9.9,6.6c2.9,0.1,5.6-1,7.7-2.9
		c1.8,3.8,5.6,6.5,10.2,6.5c4.8,0.1,9-2.8,10.8-6.9c1.8,2.2,4.5,3.7,7.6,3.8c3.7,0.1,6.9-1.8,8.8-4.7c0.1-0.3,0.1-0.7,0.1-1
		C444.4,385.2,440.2,380.8,434.9,380.7z M401.4,381.8c-1.3,0-7.5,0.6-11.1,7.4v-0.1c2.1-9.1,10.2-10,11.4-8.8
		C402.2,380.9,402,381.8,401.4,381.8z"/>
</g>
<g>
	<path fill="#66C1BC" d="M426.3,354.8c-4.1,0.5-8.1-1-10.9-4c-1.8,1.6-4.1,2.7-6.5,3c-6.7,0.8-12.8-4-13.7-10.6
		c-0.8-6.5,3.7-12.6,10.2-13.6c0-4,1.4-7.8,3.9-10.9c2.9-3.6,6.9-5.8,11.4-6.4c9.4-1.2,18.1,5.4,19.4,14.7c0.1,0,0.3-0.1,0.5-0.1
		c6.2-0.8,11.7,3.6,12.5,9.7c0.8,6.2-3.6,11.7-9.7,12.5c-2.5,0.3-5.1-0.3-7.2-1.5C434.3,351.5,430.6,354.2,426.3,354.8z"/>
	<path fill="#FFFFFF" stroke="#CFCECE" stroke-width="0.5" stroke-miterlimit="10" d="M424.3,351.3c-3.8,0-7.2-1.9-9.3-5l-0.2-0.3
		l-0.3,0.3c-1.8,2.1-4.3,3.5-7,3.8c-0.5,0.1-0.9,0.1-1.4,0.1c-3.7,0-7.1-1.9-9.1-5.1c-0.1-0.2-0.1-0.4-0.1-0.6
		c-0.7-5.7,3.3-10.9,9-11.6l0,0h0.1c2.2,0.1,4,1.2,5,2.8l0.5-0.2c-0.1-0.6-0.3-1.1-0.5-1.6c-0.7-1.4-2.1-2.5-3.8-3
		c0.1-7.7,6-14.2,13.7-15.2c0.6-0.1,1.3-0.1,1.9-0.1c3.7,0,7.3,1.4,10.1,3.8c2.8,2.4,4.7,5.7,5.3,9.3c-1.9,0.9-3.2,2.4-3.6,4.2
		c-0.1,0.6-0.2,1.2-0.1,1.7l0.6,0.1c0.5-1.7,1.8-3,3.6-3.8h0.1c0.6-0.3,1.3-0.4,2-0.5c0.4-0.1,0.8-0.1,1.2-0.1
		c4.7,0,8.7,3.5,9.3,8.2c0.1,0.3,0.1,0.6,0.1,1c-1.4,3.1-4.3,5.3-7.7,5.8c-0.4,0.1-0.8,0.1-1.2,0.1l0,0c-2.5,0-4.8-0.9-6.6-2.6
		l-0.3-0.3l-0.1,0.5c-1.2,4.4-4.9,7.6-9.5,8.2C425.3,351.2,424.8,351.3,424.3,351.3z"/>
	<path fill="#86CFCF" d="M451.4,338.6c-0.6-5.2-5.5-9-10.8-8.4c-0.7,0.1-1.4,0.3-2,0.5l0,0c-1.9,0.7-3.4,2.1-3.9,4
		c-0.1-0.5,0-1.1,0.1-1.6c0.4-1.9,1.8-3.3,3.6-4.1c-1.3-8.5-9.1-14.5-17.7-13.4c-8,1-13.9,7.8-13.9,15.7c1.7,0.5,3.1,1.4,3.8,2.9
		c0.3,0.5,0.5,1,0.5,1.6c-1-1.8-3-2.8-5.2-2.9l0,0H406c-5.8,0.7-10,6.1-9.3,11.9c0,0.2,0.1,0.5,0.1,0.6c2.2,3.6,6.4,5.7,10.8,5.1
		c2.9-0.4,5.4-1.8,7.2-4c2.3,3.5,6.5,5.6,11,5c4.8-0.6,8.5-4.1,9.7-8.4c2.1,1.9,5,3,8.1,2.6c3.6-0.5,6.6-2.9,8-6
		C451.5,339.3,451.5,338.9,451.4,338.6z M408.4,336.3c-1.4,0.1-7.6,1.2-10.8,8.4v-0.1c1.6-9.5,9.8-11.1,11.1-9.9
		C409.2,335.2,409,336.2,408.4,336.3z"/>
</g>
<g>
	<path fill="#C4BF56" d="M414.1,302.9c-4.1-0.6-7.5-3.2-9.4-6.8c-2.2,1-4.7,1.4-7.1,1c-6.7-1-11.3-7.3-10.2-14
		c1-6.5,7-11.1,13.5-10.3c1.1-3.8,3.4-7.1,6.7-9.4c3.7-2.6,8.2-3.7,12.7-3c9.4,1.4,15.9,10.1,14.6,19.5c0.1,0,0.3,0.1,0.5,0.1
		c6.1,0.9,10.3,6.7,9.4,12.8c-0.9,6.1-6.7,10.3-12.8,9.4c-2.5-0.4-4.8-1.6-6.5-3.4C422.8,302,418.5,303.6,414.1,302.9z"/>
	<path fill="#FFFFFF" stroke="#CFCECE" stroke-width="0.5" stroke-miterlimit="10" d="M416.8,299.4c-0.6,0-1.2-0.1-1.7-0.1
		c-4.2-0.6-7.6-3.6-9-7.6l-0.1-0.4l-0.3,0.2c-1.8,1.2-4,1.9-6.2,1.9c-0.6,0-1.1-0.1-1.7-0.1c-4.1-0.6-7.6-3.6-8.8-7.6
		c0-0.2,0.1-0.4,0.1-0.6c0.8-5.1,5.2-8.8,10.2-8.8c0.5,0,1,0.1,1.6,0.1l0,0h0.1c2.1,0.7,3.6,2.2,4,4l0.6-0.1
		c0.1-0.6,0.1-1.2-0.1-1.7c-0.3-1.6-1.3-3-2.9-4c2-6.5,8.1-11,14.9-11c0.8,0,1.6,0.1,2.4,0.2c4.1,0.6,7.6,2.8,10.1,6
		c2.4,3.2,3.5,7.2,3,11.1c-2,0.3-3.7,1.4-4.6,3c-0.3,0.5-0.5,1-0.6,1.6l0.5,0.2c0.9-1.5,2.5-2.4,4.5-2.6h0.1c0.2,0,0.4,0,0.6,0
		c0.5,0,1,0.1,1.4,0.1c5.1,0.8,8.6,5.6,7.8,10.6c-0.1,0.3-0.1,0.6-0.2,1c-1.9,2.3-4.6,3.6-7.5,3.6l0,0c-0.5,0-1-0.1-1.5-0.1
		c-2.9-0.5-5.4-2.1-6.9-4.6l-0.3-0.4l-0.3,0.4C424.5,297.3,420.8,299.4,416.8,299.4z"/>
	<path fill="#D3CB68" d="M435.1,283.2c-0.7-0.1-1.4-0.1-2.1-0.1l0,0c-2,0.2-3.8,1.1-4.9,2.8c0.1-0.5,0.3-1,0.6-1.6
		c0.9-1.7,2.6-2.7,4.6-2.9c1.1-8.6-4.8-16.5-13.4-17.8c-8-1.2-15.5,3.7-17.6,11.3c1.5,0.8,2.6,2.2,2.9,3.9c0.1,0.5,0.1,1.1,0.1,1.6
		c-0.5-2-2.1-3.5-4.2-4.3l0,0h-0.1c-5.8-0.9-11.3,3.1-12.2,8.9c-0.1,0.2-0.1,0.5-0.1,0.6c1.2,4,4.6,7.2,9,7.9c2.9,0.5,5.8-0.3,8-1.8
		c1.3,4,4.7,7.1,9.2,7.8c4.8,0.7,9.3-1.6,11.6-5.4c1.5,2.5,4,4.2,7.1,4.7c3.6,0.6,7.1-0.9,9.3-3.6c0.1-0.3,0.2-0.7,0.2-1
		C443.9,288.9,440.3,284,435.1,283.2z M400.9,279.2c-1.3,0-7.3,0.4-11.1,6.7v-0.1c2.5-8.8,10.4-9.3,11.5-8.1
		C401.7,278.2,401.4,279.2,400.9,279.2z"/>
</g>
<g>
	<path fill="#482C1B" d="M415.5,238.3c-4.1,0.7-8.2-0.5-11.1-3.4c-1.8,1.7-4,2.9-6.4,3.3c-6.7,1.2-13-3.2-14.3-9.9
		c-1.2-6.5,3-12.8,9.4-14.2c-0.2-4,0.9-7.8,3.2-11.1c2.7-3.7,6.6-6.2,11.1-7c9.3-1.7,18.3,4.4,20.2,13.7c0.1,0,0.3-0.1,0.5-0.1
		c6.1-1.1,11.9,2.9,13,9s-2.9,11.9-9,13c-2.5,0.5-5.1,0.1-7.3-1.1C423.3,234.6,419.8,237.5,415.5,238.3z"/>
	<path fill="#FFFFFF" stroke="#CFCECE" stroke-width="0.5" stroke-miterlimit="10" d="M412.7,235c-3.5,0-6.9-1.7-8.9-4.5l-0.3-0.3
		l-0.2,0.3c-1.6,2.2-4.1,3.7-6.8,4.2c-0.6,0.1-1.3,0.2-1.9,0.2c-3.5,0-6.7-1.7-8.8-4.5c-0.1-0.2-0.1-0.4-0.1-0.6
		c-1-5.6,2.7-11.1,8.4-12.1l0,0h0.1c2.2,0,4.1,0.9,5.1,2.5l0.5-0.2c-0.1-0.6-0.3-1.1-0.6-1.6c-0.8-1.4-2.2-2.4-4-2.8
		c-0.3-7.7,5.2-14.5,12.8-15.9c0.9-0.2,1.9-0.3,2.8-0.3c7.3,0,13.7,5.1,15.2,12.2c-1.8,1-3,2.6-3.4,4.4c-0.1,0.6-0.1,1.2,0,1.8h0.6
		c0.4-1.7,1.6-3.1,3.4-4l0.1-0.1c0.6-0.3,1.3-0.5,1.9-0.6c0.6-0.1,1.1-0.1,1.7-0.1c4.5,0,8.4,3.2,9.2,7.6c0.1,0.3,0.1,0.6,0.1,1
		c-1.2,3.2-4,5.6-7.4,6.2c-0.6,0.1-1.2,0.1-1.8,0.1l0,0c-2.3,0-4.5-0.8-6.2-2.3l-0.4-0.3l-0.1,0.5c-1,4.5-4.5,7.9-9,8.8
		C414,234.9,413.4,235,412.7,235z"/>
	<path fill="#593B26" d="M439.7,220.8c-1-5.2-6-8.7-11.2-7.8c-0.7,0.1-1.4,0.3-2,0.6l0,0c-1.9,0.8-3.2,2.3-3.7,4.2
		c-0.1-0.5-0.1-1.1,0-1.6c0.3-1.9,1.6-3.4,3.4-4.3c-1.8-8.4-9.9-14-18.4-12.4c-7.9,1.4-13.4,8.6-13,16.4c1.7,0.3,3.2,1.2,4,2.7
		c0.3,0.5,0.5,1,0.6,1.5c-1.1-1.8-3.1-2.7-5.4-2.7l0,0h-0.1c-5.8,1-9.7,6.6-8.6,12.4c0.1,0.2,0.1,0.5,0.1,0.6
		c2.4,3.4,6.7,5.3,11.1,4.5c2.9-0.5,5.3-2.1,6.9-4.3c2.5,3.4,6.8,5.2,11.3,4.4c4.7-0.8,8.3-4.5,9.2-8.9c2.2,1.8,5.2,2.7,8.2,2.1
		c3.6-0.6,6.4-3.2,7.6-6.4C439.8,221.5,439.8,221.1,439.7,220.8z M407.1,204.3c-1.4,0.3-7.8,2.5-10.1,10.7v-0.1
		c0.1-10.4,8.6-13.4,10.2-12.2C407.7,203.1,407.7,204.2,407.1,204.3z"/>
</g>
<path fill="#ADADAD" d="M346,159.6c-2.9,2-4.9,4.7-5.7,7.6c-5.2-0.3-9.7,3.6-10.2,8.8c-0.5,5.4,3.4,10.2,8.8,10.7
	c5.4,0.5,10.2-3.4,10.7-8.8c0.5-4.9-2.8-9.4-7.5-10.5c2.1-6.1,9.4-9.7,15.9-7.5l1.1-2.9C354.6,155.9,349.9,156.9,346,159.6z"/>
<path fill="#E8EAE5" d="M342.2,167.3c-0.3,0.6-0.5,1.4-0.5,2.1l-1.7-0.2c0.1-0.7,0.3-1.5,0.5-2.2c-5.3-0.3-10,3.6-10.5,9
	c-0.5,5.5,3.4,10.4,8.9,11s10.4-3.4,11-8.9C350.3,173,347,168.5,342.2,167.3z"/>
<path fill="#FFFFFF" stroke="#CFCECE" stroke-width="0.5" stroke-miterlimit="10" d="M344.7,170.4c-0.6,0.5-2.1,0.8-3.7,0.6
	c-1.8-0.2-3.2-0.8-3.6-1.5c-0.1,0.1-0.2,0.1-0.3,0.1c-1.8,0.9-3.2,2.5-4,4.4c-0.8,1.9-0.7,4.1,0.1,6c0.8,1.9,2.2,3.3,4.1,4
	c0,0,0.1,0,0.1,0.1c1.8,0.6,3.8,0.5,5.6-0.4c1.8-0.9,3.2-2.5,4-4.4C348.2,176,347.2,172.4,344.7,170.4z"/>
<path fill="#EEEFED" d="M344.7,170.2c-0.5,0.6-1.9,0.8-3.7,0.7c-1.8-0.2-3.2-0.8-3.5-1.6c-1.9,0.8-3.6,2.5-4.5,4.7
	c-1.6,4.1,0.3,8.7,4.1,10.2c3.9,1.5,8.3-0.7,9.9-4.9C348.5,176,347.4,172.2,344.7,170.2z M345.8,176.5c-0.7,1-2.3,1.1-3.6,0.2
	c-1.3-0.9-1.8-2.5-1-3.5c0.7-1,2.3-1.1,3.6-0.2C346.1,174,346.5,175.5,345.8,176.5z"/>
</svg>
