<?xml version="1.0" encoding="UTF-8" standalone="no"?>
<!-- Created with Inkscape (http://www.inkscape.org/) -->

<svg
   xmlns:dc="http://purl.org/dc/elements/1.1/"
   xmlns:cc="http://creativecommons.org/ns#"
   xmlns:rdf="http://www.w3.org/1999/02/22-rdf-syntax-ns#"
   xmlns:svg="http://www.w3.org/2000/svg"
   xmlns="http://www.w3.org/2000/svg"
   xmlns:inkscape="http://www.inkscape.org/namespaces/inkscape"
   version="1.1"
   width="744.09448"
   height="1052.3622"
   id="svg2">
  <defs
     id="defs4">
    <inkscape:path-effect
       effect="skeletal"
       id="path-effect3294" />
    <inkscape:path-effect
       effect="skeletal"
       id="path-effect3290" />
    <inkscape:path-effect
       effect="skeletal"
       id="path-effect3286" />
    <inkscape:path-effect
       effect="skeletal"
       id="path-effect3282" />
    <inkscape:path-effect
       effect="skeletal"
       id="path-effect3254" />
    <inkscape:path-effect
       effect="skeletal"
       id="path-effect3215" />
    <inkscape:path-effect
       effect="skeletal"
       id="path-effect3211" />
    <inkscape:path-effect
       effect="skeletal"
       id="path-effect3023" />
    <inkscape:path-effect
       effect="skeletal"
       id="path-effect3019" />
    <inkscape:path-effect
       effect="skeletal"
       id="path-effect3015" />
    <inkscape:path-effect
       effect="skeletal"
       id="path-effect3011" />
    <inkscape:path-effect
       effect="skeletal"
       id="path-effect3007" />
    <inkscape:path-effect
       effect="skeletal"
       id="path-effect3003" />
    <inkscape:path-effect
       effect="skeletal"
       id="path-effect2999" />
    <inkscape:path-effect
       effect="skeletal"
       id="path-effect2995" />
    <filter
       x="-0.25"
       y="-0.25"
       width="1.5"
       height="1.5"
       color-interpolation-filters="sRGB"
       id="filter3442">
      <feGaussianBlur
         result="blur"
         stdDeviation="9.1"
         in="SourceAlpha"
         id="feGaussianBlur3444" />
      <feColorMatrix
         values="1 0 0 0 0 0 1 0 0 0 0 0 1 0 0 0 0 0 0.504 0 "
         type="matrix"
         result="bluralpha"
         id="feColorMatrix3446" />
      <feOffset
         result="offsetBlur"
         dy="19.4"
         dx="11"
         in="bluralpha"
         id="feOffset3448" />
      <feMerge
         id="feMerge3450">
        <feMergeNode
           in="offsetBlur"
           id="feMergeNode3452" />
        <feMergeNode
           in="SourceGraphic"
           id="feMergeNode3454" />
      </feMerge>
    </filter>
    <filter
       x="-0.25"
       y="-0.25"
       width="1.5"
       height="1.5"
       color-interpolation-filters="sRGB"
       id="filter3456">
      <feGaussianBlur
         result="blur"
         stdDeviation="9.1"
         in="SourceAlpha"
         id="feGaussianBlur3458" />
      <feColorMatrix
         values="1 0 0 0 0 0 1 0 0 0 0 0 1 0 0 0 0 0 0.504 0 "
         type="matrix"
         result="bluralpha"
         id="feColorMatrix3460" />
      <feOffset
         result="offsetBlur"
         dy="19.4"
         dx="11"
         in="bluralpha"
         id="feOffset3462" />
      <feMerge
         id="feMerge3464">
        <feMergeNode
           in="offsetBlur"
           id="feMergeNode3466" />
        <feMergeNode
           in="SourceGraphic"
           id="feMergeNode3468" />
      </feMerge>
    </filter>
    <filter
       x="-0.25"
       y="-0.25"
       width="1.5"
       height="1.5"
       color-interpolation-filters="sRGB"
       id="filter3470">
      <feGaussianBlur
         result="blur"
         stdDeviation="9.1"
         in="SourceAlpha"
         id="feGaussianBlur3472" />
      <feColorMatrix
         values="1 0 0 0 0 0 1 0 0 0 0 0 1 0 0 0 0 0 0.504 0 "
         type="matrix"
         result="bluralpha"
         id="feColorMatrix3474" />
      <feOffset
         result="offsetBlur"
         dy="19.4"
         dx="11"
         in="bluralpha"
         id="feOffset3476" />
      <feMerge
         id="feMerge3478">
        <feMergeNode
           in="offsetBlur"
           id="feMergeNode3480" />
        <feMergeNode
           in="SourceGraphic"
           id="feMergeNode3482" />
      </feMerge>
    </filter>
    <filter
       x="-0.25"
       y="-0.25"
       width="1.5"
       height="1.5"
       color-interpolation-filters="sRGB"
       id="filter3484">
      <feGaussianBlur
         result="blur"
         stdDeviation="9.1"
         in="SourceAlpha"
         id="feGaussianBlur3486" />
      <feColorMatrix
         values="1 0 0 0 0 0 1 0 0 0 0 0 1 0 0 0 0 0 0.504 0 "
         type="matrix"
         result="bluralpha"
         id="feColorMatrix3488" />
      <feOffset
         result="offsetBlur"
         dy="19.4"
         dx="11"
         in="bluralpha"
         id="feOffset3490" />
      <feMerge
         id="feMerge3492">
        <feMergeNode
           in="offsetBlur"
           id="feMergeNode3494" />
        <feMergeNode
           in="SourceGraphic"
           id="feMergeNode3496" />
      </feMerge>
    </filter>
    <filter
       x="-0.25"
       y="-0.25"
       width="1.5"
       height="1.5"
       color-interpolation-filters="sRGB"
       id="filter3498">
      <feGaussianBlur
         result="blur"
         stdDeviation="9.1"
         in="SourceAlpha"
         id="feGaussianBlur3500" />
      <feColorMatrix
         values="1 0 0 0 0 0 1 0 0 0 0 0 1 0 0 0 0 0 0.504 0 "
         type="matrix"
         result="bluralpha"
         id="feColorMatrix3502" />
      <feOffset
         result="offsetBlur"
         dy="19.4"
         dx="11"
         in="bluralpha"
         id="feOffset3504" />
      <feMerge
         id="feMerge3506">
        <feMergeNode
           in="offsetBlur"
           id="feMergeNode3508" />
        <feMergeNode
           in="SourceGraphic"
           id="feMergeNode3510" />
      </feMerge>
    </filter>
    <filter
       x="-0.25"
       y="-0.25"
       width="1.5"
       height="1.5"
       color-interpolation-filters="sRGB"
       id="filter3528">
      <feGaussianBlur
         result="blur"
         stdDeviation="9.1"
         in="SourceAlpha"
         id="feGaussianBlur3530" />
      <feColorMatrix
         values="1 0 0 0 0 0 1 0 0 0 0 0 1 0 0 0 0 0 0.504 0 "
         type="matrix"
         result="bluralpha"
         id="feColorMatrix3532" />
      <feOffset
         result="offsetBlur"
         dy="19.4"
         dx="11"
         in="bluralpha"
         id="feOffset3534" />
      <feMerge
         id="feMerge3536">
        <feMergeNode
           in="offsetBlur"
           id="feMergeNode3538" />
        <feMergeNode
           in="SourceGraphic"
           id="feMergeNode3540" />
      </feMerge>
    </filter>
    <filter
       x="-0.25"
       y="-0.25"
       width="1.5"
       height="1.5"
       color-interpolation-filters="sRGB"
       id="filter3542">
      <feGaussianBlur
         result="blur"
         stdDeviation="9.1"
         in="SourceAlpha"
         id="feGaussianBlur3544" />
      <feColorMatrix
         values="1 0 0 0 0 0 1 0 0 0 0 0 1 0 0 0 0 0 0.504 0 "
         type="matrix"
         result="bluralpha"
         id="feColorMatrix3546" />
      <feOffset
         result="offsetBlur"
         dy="19.4"
         dx="11"
         in="bluralpha"
         id="feOffset3548" />
      <feMerge
         id="feMerge3550">
        <feMergeNode
           in="offsetBlur"
           id="feMergeNode3552" />
        <feMergeNode
           in="SourceGraphic"
           id="feMergeNode3554" />
      </feMerge>
    </filter>
  </defs>
  <metadata
     id="metadata7">
    <rdf:RDF>
      <cc:Work
         rdf:about="">
        <dc:format>image/svg+xml</dc:format>
        <dc:type
           rdf:resource="http://purl.org/dc/dcmitype/StillImage" />
        <dc:title></dc:title>
      </cc:Work>
    </rdf:RDF>
  </metadata>
  <g
     id="layer1">
    <path
       d="M 554.86645,851.01913 C 554.31175,850.30457 434.63789,426.1289 434.63789,424.8773 c 0,-0.20713 0.49636,-0.873 1.10306,-1.47969 0.9942,-0.99419 12.93411,-1.10309 120.94844,-1.10309 92.27708,0 120.0391,0.19377 120.68769,0.84236 0.4633,0.4633 0.84236,1.46539 0.84236,2.22687 0,2.18394 -118.66114,423.19012 -119.77368,424.95341 -1.10721,1.75487 -2.54331,2.03651 -3.57931,0.70197 z"
       id="path3514"
       style="fill:#000000" />
    <path
       d="m 69.929112,499.77933 0.30711,1.9304 c 0.69333,4.41565 115.296828,410.07941 115.714418,409.59608 0.25077,-0.29026 26.41055,-92.76456 58.1314,-205.5 31.72085,-112.73544 57.65228,-205.21045 57.64881,-205.50001 -0.004,-0.28956 -52.14282,-0.52647 -115.88989,-0.52647 l -115.911848,0 z m 66.138218,2.87367 c 0.19304,-0.005 1.11654,0.96016 2.04004,2.12783 l 1.66717,2.12782 -4.18982,4.32147 c -13.71778,14.18502 -23.77503,31.66836 -32.59745,56.63973 -1.84147,5.21209 -3.356938,9.16145 -3.378208,8.77455 -0.0702,-1.27264 4.111408,-15.28801 7.019638,-23.51579 3.85273,-10.89997 11.43177,-26.20717 17.19813,-34.74723 4.57821,-6.78044 11.51965,-15.71126 12.2405,-15.72838 z m 90.13656,2.76398 c 0.42697,0.0157 1.84196,0.93601 3.15884,2.06202 l 2.39107,2.06202 -4.84794,5.35248 c -17.05798,18.84024 -29.76252,37.4702 -41.26233,60.47859 -15.27824,30.5681 -26.26917,64.65739 -39.09062,121.30818 -2.4985,11.03948 -4.58817,19.67303 -4.8041,19.91823 -0.0618,-1.29998 8.13345,-44.12379 8.75265,-45.73735 0.29764,-0.77569 -1.19621,-1.86154 -5.57184,-4.1021 -3.28049,-1.67977 -5.85768,-3.15814 -5.72543,-3.29046 0.13232,-0.1323 2.70186,0.89455 5.70346,2.28139 3.00167,1.38683 5.67594,2.27105 5.9448,1.97427 0.26878,-0.29678 1.33155,-4.47502 2.36912,-9.30102 1.03758,-4.82601 3.2892,-14.11136 5.0015,-20.6202 1.71223,-6.50883 3.11496,-12.09103 3.11496,-12.41599 0,-0.47896 -6.79992,-5.58805 -13.77604,-10.33204 -3.19955,-2.17578 4.08845,1.75678 8.3797,4.5189 2.63089,1.69341 5.08924,3.13641 5.46212,3.22465 0.37288,0.0882 2.67954,-5.82631 5.13311,-13.16183 2.45365,-7.33553 6.10393,-17.28587 8.09456,-22.11187 1.99063,-4.826 3.67057,-9.07245 3.75109,-9.43264 0.32915,-1.47127 -15.48849,-8.8981 -29.59214,-13.88573 -0.92225,-0.32614 -1.54243,-0.73895 -1.36006,-0.92133 0.61899,-0.61899 16.33772,4.71213 24.30551,8.24808 4.36151,1.93556 8.01931,3.38932 8.13836,3.24658 0.11912,-0.14273 1.6287,-3.25438 3.3563,-6.93189 3.87078,-8.23978 11.39085,-21.47543 16.84713,-29.63605 l 4.1021,-6.12025 -4.73826,-2.39107 c -2.61104,-1.30712 -7.52418,-3.41825 -10.90238,-4.69438 -5.44302,-2.05613 -7.6462,-3.46595 -5.37443,-3.46595 1.05231,0 16.68719,5.52632 19.0408,6.73447 1.04255,0.53515 2.31586,0.98713 2.82979,0.98713 0.51393,0 2.78663,-2.4481 5.0673,-5.44022 6.1833,-8.1122 15.21771,-18.43709 16.1013,-18.40462 z m 48.39166,0.74584 2.72011,2.14976 c 2.36493,1.87306 2.59319,2.29513 1.77684,3.29046 -0.516,0.62913 -3.01499,3.53176 -5.5499,6.42736 -6.11453,6.98458 -18.8724,23.47003 -24.04227,31.06191 l -4.14598,6.07638 6.60285,6.88802 c 3.63177,3.7872 8.43643,9.33871 10.68302,12.32825 3.89128,5.17814 10.32158,15.08961 10.3101,15.90387 -0.003,0.2108 -1.23916,1.09427 -2.74205,1.95234 -3.08677,1.76239 -3.16158,1.70818 -5.68152,-3.29046 -3.34509,-6.63543 -11.83324,-18.48781 -18.27301,-25.53394 l -3.66337,-4.01436 -3.18078,5.11118 c -4.48287,7.1805 -12.78525,22.40673 -16.5839,30.42575 l -3.20271,6.77835 8.99392,8.86229 c 11.62819,11.46608 20.43096,22.69219 27.72758,35.36145 l 1.90846,3.31239 -2.80785,1.42586 c -1.53793,0.7846 -2.95022,1.42587 -3.1369,1.42587 -0.18669,0 -2.13169,-3.20583 -4.32147,-7.10739 -4.79863,-8.54974 -8.92119,-14.64268 -14.63157,-21.67314 -6.0816,-7.48749 -15.2968,-16.9904 -15.86,-16.3426 -1.12294,1.2916 -7.97708,19.15543 -12.26243,32.00517 l -4.62858,13.90767 7.4145,7.74354 c 7.87028,8.21328 17.94515,21.17442 24.10808,31.01804 5.05678,8.07686 5.11191,8.44259 1.62329,10.22235 l -2.85173,1.44781 -3.18078,-6.16413 c -4.5689,-8.84625 -11.6854,-19.50429 -19.85242,-29.72379 -3.9,-4.88011 -7.42176,-9.06148 -7.80935,-9.30103 -0.87694,-0.54197 -1.86145,2.75575 -6.90996,22.87965 l -3.99242,15.92581 4.89181,5.48409 c 5.80041,6.48321 11.90055,14.00234 17.242,21.27829 5.71377,7.78313 15.44103,21.90185 15.20191,22.068 -1.12136,0.77914 -5.37096,3.20271 -5.61572,3.20271 -0.1741,0 -3.73299,-5.5008 -7.91903,-12.21856 -10.00144,-16.05036 -23.85723,-35.41487 -24.7223,-34.5498 -0.23319,0.2332 -8.77355,40.30974 -9.4546,44.3773 -0.17191,1.02679 2.77823,5.5191 9.65203,14.74124 10.76941,14.44862 22.75662,31.51255 22.74802,32.3781 -0.003,0.2992 -1.25813,1.25543 -2.78592,2.12783 l -2.78592,1.57942 -6.55897,-11.05594 c -5.61148,-9.44046 -17.55453,-28.47592 -20.53248,-32.72908 -0.82986,-1.18521 -0.9838,-1.02505 -1.64519,1.75491 l -0.72393,3.0711 0.37295,-3.68532 0.39485,-3.66337 -6.20803,-8.27002 c -3.40923,-4.54267 -8.99532,-11.56485 -12.41599,-15.6187 l -6.20796,-7.37062 7.98484,8.07259 c 4.3962,4.43992 10.01991,10.44171 12.48177,13.33732 2.46186,2.8956 4.66062,5.34197 4.89185,5.44022 0.23122,0.0982 2.23807,-9.69416 4.47502,-21.76089 2.23688,-12.06674 4.24291,-22.79124 4.45307,-23.82291 0.33683,-1.65342 -0.60761,-2.86007 -7.94099,-10.20042 -7.15863,-7.16546 -14.70004,-13.49815 -21.30019,-17.85621 -0.9593,-0.63344 -1.53927,-1.36828 -1.27231,-1.64523 1.1979,-1.24293 16.72345,9.75527 25.68746,18.2072 3.19768,3.01499 5.91887,5.36923 6.03253,5.22086 0.11366,-0.14838 0.91559,-3.73796 1.79878,-7.98485 0.88319,-4.24688 2.96334,-13.18087 4.60664,-19.85242 l 2.98335,-12.13082 -6.40542,-6.33961 c -3.52133,-3.48771 -9.91193,-9.24285 -14.21476,-12.76697 -4.51482,-3.69769 -7.69922,-6.76959 -7.50224,-7.28288 0.41851,-1.09071 9.81135,5.63445 21.34408,15.28966 l 8.1384,6.80027 0.89939,-3.6195 c 1.68886,-6.70208 7.14814,-23.21328 11.034,-33.3433 3.77352,-9.83719 3.83264,-10.06699 2.56655,-11.47272 -2.34328,-2.60173 -11.71047,-10.08258 -18.31687,-14.63157 -6.18007,-4.25542 -7.39056,-5.66664 -5.76927,-6.66866 0.7684,-0.47489 15.8135,9.2162 22.74802,14.6535 2.29293,1.79786 4.41308,3.03587 4.69439,2.74205 0.28131,-0.29381 1.90367,-3.72511 3.6195,-7.61192 3.15188,-7.13983 11.54997,-23.09361 16.21099,-30.82062 1.97645,-3.27653 2.34246,-4.36373 1.66716,-4.97955 -3.76219,-3.43088 -11.02242,-9.05663 -16.14517,-12.52568 -3.37821,-2.28766 -6.14219,-4.38133 -6.14219,-4.65051 0,-0.26917 0.42875,-0.8453 0.94326,-1.27231 1.11889,-0.9286 9.63927,3.96477 18.82142,10.81464 l 5.83507,4.36534 5.63765,-8.51132 c 6.23604,-9.40326 13.94125,-19.75363 22.41898,-30.09671 l 5.54991,-6.77834 z m -90.39981,0.61422 2.65429,2.72011 2.6543,2.69817 -6.53703,5.63765 c -13.99948,12.06109 -26.14219,26.97927 -36.17312,44.42117 -6.80119,11.82614 -10.88501,20.50158 -17.68072,37.55508 -0.76921,1.9304 -1.40477,3.14775 -1.42583,2.72011 -0.0768,-1.55926 7.65049,-23.27594 10.83657,-30.44769 4.2214,-9.50228 4.26155,-9.64371 2.69814,-10.04686 -1.06228,-0.27394 -1.00016,-0.34992 0.28521,-0.4168 1.09773,-0.0571 2.01225,-0.95672 3.07109,-3.04915 5.33696,-10.54666 15.2786,-25.54669 22.68222,-34.22075 2.14197,-2.50953 3.89934,-4.75166 3.90467,-4.97956 0.007,-0.22789 -1.73518,-0.82819 -3.8608,-1.33812 -5.19404,-1.24604 -4.39963,-1.73136 1.00907,-0.61422 l 4.29953,0.89939 5.79121,-5.76927 5.7912,-5.76926 z m -25.81915,266.4612 c 0.0832,-2.1e-4 0.3679,0.22562 0.83358,0.65809 3.79784,3.52657 13.53036,14.99131 19.6331,23.12094 5.83434,7.77215 21.42294,30.88062 22.1996,32.90457 0.57561,1.50001 -4.85013,4.37587 -5.83508,3.09303 -0.36176,-0.47117 -2.75169,-4.88928 -5.33054,-9.80556 -9.76378,-18.61353 -20.76946,-36.21555 -29.28505,-46.85611 -1.64976,-2.06143 -2.39861,-3.11452 -2.21561,-3.11496 z"
       id="path3516"
       style="fill:#ff9955" />
    <path
       d="m 578.26565,395.40307 c -1.90119,-0.31829 -5.21797,-1.50553 -7.37062,-2.63831 -2.15265,-1.13278 -5.82589,-3.06112 -8.16275,-4.2852 -5.97333,-3.12892 -13.60425,-4.3109 -28.04148,-4.34345 -14.01183,-0.0316 -21.96284,1.06268 -35.09821,4.83046 -7.60873,2.18249 -10.17567,2.61127 -15.44321,2.5796 -5.44569,-0.0327 -7.01711,-0.33694 -11.38466,-2.20388 -6.69407,-2.8614 -13.50004,-7.79602 -16.48717,-11.9539 -1.32868,-1.84943 -3.87393,-6.61043 -5.65615,-10.57999 -5.43587,-12.10766 -11.58129,-19.32126 -20.13079,-23.62981 -1.76017,-0.88707 -6.83299,-2.74492 -11.27291,-4.12857 -4.43992,-1.38365 -9.36701,-3.35702 -10.94903,-4.38528 -3.78485,-2.46007 -7.04814,-7.56718 -8.342,-13.05536 -1.22542,-5.1979 -1.39585,-18.58721 -0.34712,-27.26567 l 0.71881,-5.94829 6.32617,-5.96669 c 4.72724,-4.45862 6.32182,-6.41025 6.30912,-7.72161 -0.009,-0.9652 0.46301,-3.49227 1.04978,-5.61571 0.58671,-2.12344 1.37887,-7.80935 1.76046,-12.63536 1.33542,-16.89036 4.5521,-28.73363 11.5346,-42.46883 18.40894,-36.212 55.60722,-61.30489 101.04901,-68.16484 10.57242,-1.59602 28.19444,-1.61604 36.67851,-0.0417 29.54382,5.48235 60.73253,22.47486 83.95216,45.73957 17.89506,17.9298 30.12131,38.84536 35.90672,61.42596 3.78309,14.76548 11.15263,41.58589 13.74373,50.0184 1.51316,4.92442 2.96108,10.53567 3.2176,12.46945 1.10961,8.36466 -4.24676,14.07032 -18.08031,19.25935 -2.14962,0.80634 -3.40981,1.74408 -3.67572,2.73521 -0.61709,2.3 -0.47676,7.98271 0.3319,13.44159 2.38082,16.07162 -0.18587,24.60261 -8.23528,27.37183 -3.20852,1.10383 -5.47347,0.37772 -10.6718,-3.4212 -6.81174,-4.978 -13.50131,-5.69098 -23.2791,-2.48109 -5.72325,1.87884 -10.47701,4.57961 -20.34239,11.55718 -10.33939,7.31283 -14.7622,9.76304 -20.1073,11.13937 -4.57008,1.17676 -13.64305,1.3474 -19.50057,0.36675 z"
       id="path3522"
       style="fill:#000000" />
    <path
       d="m 182.31508,149.76563 c -3.5765,-0.018 -7.27031,0.12366 -11.01206,0.46067 -35.51426,3.19867 -66.30956,17.50212 -88.754654,41.21845 -7.944268,8.39425 -13.240658,15.90724 -18.426558,26.1043 -6.794171,13.35964 -9.894887,24.83538 -11.121709,41.19652 -0.376323,5.01905 -1.154521,10.67431 -1.73301,12.56955 -0.578418,1.89524 -1.052946,4.62759 -1.052946,6.07637 0,2.41888 -0.515382,3.11781 -6.36155,8.51132 l -6.36155,5.85701 -0.63612,4.89182 c -0.34663,2.69144 -0.645456,8.86883 -0.658091,13.71023 -0.04563,17.53241 3.41681,23.10653 16.781295,27.04756 18.551649,5.47065 26.89007,12.57721 34.264625,29.21925 1.841252,4.15498 4.439923,9.02644 5.791204,10.83657 4.785149,6.40996 15.415834,12.06154 23.888744,12.70116 3.8754,0.29256 6.23021,-0.0942 15.09223,-2.52268 16.25566,-4.45464 22.5718,-5.22072 39.55133,-4.826 17.11242,0.3978 21.50032,1.33395 30.33797,6.5151 3.16315,1.85442 7.34754,3.75432 9.32297,4.23372 5.25695,1.27578 15.60207,1.21114 20.13759,-0.13162 4.6019,-1.3624 10.62952,-4.82234 19.78662,-11.38498 13.46504,-9.65002 21.69713,-13.0342 31.76388,-13.00827 6.40063,0.0165 8.61778,0.80311 15.48708,5.50603 4.04372,2.76843 4.77031,3.03776 6.47124,2.39107 6.2801,-2.38769 7.64159,-7.30986 6.01056,-21.67314 -1.08511,-9.55581 -0.88722,-17.67991 0.46067,-19.30401 0.40193,-0.4843 2.22982,-1.42884 4.05823,-2.10589 8.84639,-3.27579 14.11726,-6.68742 16.01356,-10.33204 1.5866,-3.0494 1.18924,-6.00968 -2.43494,-18.18526 -1.88193,-6.32236 -5.68921,-20.02352 -8.46744,-30.44769 -6.53062,-24.50335 -9.19136,-32.79632 -13.3812,-41.61331 -18.8465,-39.6602 -62.99594,-73.13585 -108.10248,-81.97626 -5.10584,-1.00069 -10.75477,-1.50559 -16.71549,-1.53555 z M 66.995509,286.84607 c 1.426812,-0.0293 5.61459,5.2035 12.306273,15.35547 12.167285,18.45883 16.0575,21.99064 26.016548,23.58161 2.67687,0.42763 4.98682,0.88471 5.13311,1.03101 0.64967,0.64964 -0.82846,1.76946 -3.22461,2.43494 -4.18174,1.16139 -8.631283,0.83047 -13.052182,-0.98714 -5.831497,-2.3976 -9.946762,-6.16843 -14.960611,-13.6883 -4.519245,-6.77814 -13.11985,-25.13538 -12.7231,-27.15724 0.07223,-0.36783 0.240352,-0.56492 0.504572,-0.57035 z m 241.673091,4.65052 c 1.05571,0.0667 1.97427,3.23046 1.97427,6.97577 0,7.03709 -3.90826,15.20883 -9.84943,20.57632 -5.06907,4.5796 -13.63507,7.54249 -17.35168,6.01057 -0.86868,-0.35806 -1.57942,-0.8043 -1.57942,-0.98714 0,-0.18284 1.91302,-1.33987 4.25566,-2.58849 5.63913,-3.00562 13.19926,-10.08836 15.75032,-14.76319 1.12882,-2.06856 2.89277,-6.27118 3.92661,-9.34489 1.03386,-3.07372 2.22581,-5.71419 2.65431,-5.85702 0.0713,-0.0238 0.14898,-0.0264 0.21936,-0.0219 z m -78.90516,51.19951 c 3.1634,-0.018 8.53787,0.81146 14.47801,2.34718 6.57402,1.69961 11.17849,2.50075 14.54382,2.50075 4.31138,0 4.91491,0.15361 4.71633,1.22844 -0.42669,2.30945 -5.98525,4.38961 -11.4508,4.29953 -2.71728,-0.0448 -5.56746,-0.22313 -6.33962,-0.39486 -0.77216,-0.17173 -4.28974,-1.41771 -7.83128,-2.76398 -6.58452,-2.503 -11.00389,-4.97825 -11.07787,-6.22993 -0.038,-0.6439 1.06336,-0.9763 2.96141,-0.98713 z m -85.92484,0.65808 c 0.5608,-0.0155 1.47939,0.052 2.89561,0.17549 5.85859,0.51068 9.38399,1.82119 23.86685,8.95005 14.68607,7.22894 19.80688,9.06972 26.63073,9.54232 2.72652,0.18883 5.74733,0.50069 6.71253,0.70197 l 1.75491,0.37291 -1.57942,1.29425 c -1.85027,1.50153 -7.38572,2.81928 -11.60435,2.76398 -1.62183,-0.0213 -5.21467,-0.63393 -7.98484,-1.36005 -2.77016,-0.72613 -7.66636,-2.59501 -10.88044,-4.14598 -6.90529,-3.33217 -28.56117,-15.87087 -30.07481,-17.41748 -0.59007,-0.60295 -0.67136,-0.85158 0.26323,-0.87746 z"
       id="path3520"
       style="fill:#ff8080" />
  </g>
</svg>
